<svg xmlns="http://www.w3.org/2000/svg" version="1.1" xmlns:xlink="http://www.w3.org/1999/xlink" xmlns:svgjs="http://svgjs.dev/svgjs" viewBox="0 0 1920 1080" style="overflow: hidden; height: 85vh;" class="overflow-hidden rounded-md drop-shadow-lg transition duration-300"><rect width="1920" height="1080" fill="#434ccb"/><g clip-path="url(&quot;#SvgjsClipPath2803&quot;)"><g transform="matrix(-0.8272407703894487,-0.7988571260278469,0.7988571260278469,-0.8272407703894487,1267.0992264145484,1729.2747237424956)"><path d="M0,-1080C3.64947175260563,-1021.6646418829264,2.836017076313407,-895.3299582365086,21.89683051563378,-729.9878512975583C40.95764395495415,-564.6457443586081,128.11013460089325,-250.0030133802039,114.36488063592225,-87.94735836629837C100.61962667095123,74.10829664760715,-52.5785554200664,105.60747141197734,-60.57469327419227,242.3460787858748C-68.57083112831815,379.0846861597722,60.08680688923,572.5863091378758,66.38805351116702,732.4842858770862C72.68930013310403,892.3822626162967,-30.43535541200107,1053.8036124778257,-22.767213542570175,1201.7339392211375C-15.099071673139282,1349.6642659644492,108.602369137324,1460.3552362071466,112.39690472775237,1620.066246336957C116.19144031818074,1779.7772564667673,18.732817454625394,2070.0110410561597,0,2160L 1920 2160 L 1920 -1080 Z" fill="url(&quot;#SvgjsLinearGradient2795&quot;)"/><path d="M240,-1080C243.23246207874777,-930.1269819520883,280.0718238246821,-461.4766393504518,259.39477247248664,-180.7618917125294C238.71772112029117,99.95285592539301,126.38433858640369,339.8362570039174,115.93769188682728,604.2884858275345C105.49104518725088,868.7407146511516,176.03784092283274,1146.6662288670955,196.7148922750282,1405.9514812291732C217.39194362722367,1665.2367335912509,232.78581537917137,2034.3252468715289,240,2160L 1920 2160 L 1920 -1080 Z" fill="url(&quot;#SvgjsLinearGradient2796&quot;)"/><path d="M480,-1080C476.5710312639948,-973.4698383747491,456.4125100994554,-604.2270829569568,459.42618758396907,-440.8190302484948C462.43986506848273,-277.41097754003283,510.78310833808916,-283.5284850640916,498.08206490708204,-99.55168374922818C485.3810214760749,84.42511756563528,380.96468112658243,468.3999948091722,383.2199269979264,663.041777640686C385.47517286927035,857.6835604721997,495.85156697796657,912.0008899383489,511.61354013514574,1068.299013239854C527.375513292325,1224.597136541359,483.06068929685904,1418.8803529896923,477.7917659410014,1600.8305174497166C472.5228425851438,1782.780681909741,479.63196099016693,2066.8050862416194,480,2160L 1920 2160 L 1920 -1080 Z" fill="url(&quot;#SvgjsLinearGradient2797&quot;)"/><path d="M720,-1080C740.9761767651682,-1021.2202901889783,825.1612950927912,-870.7044750010157,845.8570605910094,-727.3217411338699C866.5528260892276,-583.939007266724,851.4698256162537,-374.15767993909776,844.1745929893093,-219.70359679712493C836.8793603623649,-65.24951365515213,832.9390662587581,51.7335521583413,802.0856648293428,199.40275771796695C771.2322633999275,347.0719632775926,670.1082982478409,484.5901252194799,659.0541844128179,666.311636560629C648.0000705777949,848.0331479017782,722.1462857882011,1115.6363661830283,735.7609818192045,1289.7318257648622C749.3756778502079,1463.827285346696,743.3691909020391,1565.8396983457756,740.7423605988383,1710.884394051632C738.1155302956375,1855.9290897574883,723.4570600998064,2085.147399008605,720,2160L 1920 2160 L 1920 -1080 Z" fill="url(&quot;#SvgjsLinearGradient2798&quot;)"/><path d="M960,-1080C951.1587510240636,-988.361649895661,889.5822304259469,-725.3362086328265,906.9525061443816,-530.1698993739658C924.3227818628162,-335.0035901151051,1069.4147015085434,-100.23780880035102,1064.2216543106078,90.9978555531643C1059.0286071126723,282.2335199066796,907.6896003731923,459.76920280983836,875.7942229567675,617.2440867471262C843.8988455403427,774.718970684414,846.169999385118,851.3527123397355,872.8493898120589,1035.8471591768912C899.5287802389998,1220.3416060140469,1021.3454638204229,1536.851960966209,1035.870565518413,1724.2107677700603C1050.3956672164031,1911.5695745739117,972.6450942530688,2087.36846129501,960,2160L 1920 2160 L 1920 -1080 Z" fill="url(&quot;#SvgjsLinearGradient2799&quot;)"/><path d="M1200,-1080C1202.9748768579834,-993.9428580259013,1226.53661258467,-698.0057445818227,1217.8492611479012,-563.6571481554079C1209.1619097111325,-429.30855172899305,1171.8530356368774,-402.29649394261276,1147.8758913793883,-273.9084214415112C1123.8987471218993,-145.52034894040972,1084.7025180646951,84.74146184425614,1073.9863956029662,206.67128685120105C1063.2702731412373,328.60111185814594,1075.9346618400318,340.87063431123084,1083.579156609015,457.67052860015826C1091.223651377998,574.4704228890857,1100.2312727811545,749.8525569333042,1119.8533642168647,907.4706525847656C1139.475455652575,1065.088748236227,1195.9587671684635,1281.2633970254765,1201.3117052232765,1403.3791025089272C1206.6646432780894,1525.494807992378,1152.1896100829556,1514.0614025702907,1151.9709925457428,1640.1648854854695C1151.75237500853,1766.2683684006483,1191.9951654242905,2073.360814247578,1200,2160L 1920 2160 L 1920 -1080 Z" fill="url(&quot;#SvgjsLinearGradient2800&quot;)"/><path d="M1440,-1080C1446.623338823586,-1016.9433283111371,1467.014328736292,-866.5750143287675,1479.740032941516,-701.6599698668222C1492.4657371467397,-536.7449254048769,1542.910707750551,-276.3273389987661,1516.354225231343,-90.50973322832806C1489.797742712135,95.30787254210998,1324.0526587691304,273.25611539941366,1320.4011378262678,413.245664755806C1316.7496168834052,553.2352141121983,1455.2807131239667,612.9485984402988,1494.445099574168,749.4275629100259C1533.609486024369,885.906527379753,1552.3431539016885,1094.0400778855344,1555.3874565274753,1232.1194515741686C1558.431759153262,1370.1988252628028,1531.9421580834673,1423.257046970859,1512.7109153288882,1577.9038050418308C1493.479672574309,1732.5505631128026,1452.118485888148,2062.9839675069716,1440,2160L 1920 2160 L 1920 -1080 Z" fill="url(&quot;#SvgjsLinearGradient2801&quot;)"/><path d="M1680,-1080C1694.8529690199714,-982.5732587133505,1780.7996244894175,-703.4894188207222,1769.1178141198288,-495.43955228010276C1757.4360037502402,-287.3896857394833,1645.6169478066504,-75.77547717731798,1609.909137782468,168.2991992437167C1574.2013277582855,412.3738756647514,1548.1548136760605,733.5538088552079,1554.8709539747342,969.0085062461053C1561.587094273408,1204.4632036370026,1629.3511385702996,1382.5288012967853,1650.2059795745106,1581.0273835891012C1671.0608205787216,1779.525965881417,1675.034329929085,2063.5045639315167,1680,2160L 1920 2160 L 1920 -1080 Z" fill="url(&quot;#SvgjsLinearGradient2802&quot;)"/></g></g><defs><linearGradient x1="0.1" y1="0" x2="0" y2="1" id="SvgjsLinearGradient2795"><stop stop-color="#434ccb" offset="0"/><stop stop-color="#4363cb" offset="0"/></linearGradient><linearGradient x1="0.1" y1="0" x2="0" y2="1" id="SvgjsLinearGradient2796"><stop stop-color="#646bd4" offset="0"/><stop stop-color="#647ed4" offset="0.125"/></linearGradient><linearGradient x1="0.1" y1="0" x2="0" y2="1" id="SvgjsLinearGradient2797"><stop stop-color="#848add" offset="0"/><stop stop-color="#8499dd" offset="0.25"/></linearGradient><linearGradient x1="0.1" y1="0" x2="0" y2="1" id="SvgjsLinearGradient2798"><stop stop-color="#a5aae6" offset="0"/><stop stop-color="#a5b5e6" offset="0.375"/></linearGradient><linearGradient x1="0.1" y1="0" x2="0" y2="1" id="SvgjsLinearGradient2799"><stop stop-color="#c6c9ef" offset="0"/><stop stop-color="#c6d0ef" offset="0.5"/></linearGradient><linearGradient x1="0.1" y1="0" x2="0" y2="1" id="SvgjsLinearGradient2800"><stop stop-color="#e7e8f8" offset="0"/><stop stop-color="#e7ebf8" offset="0.625"/></linearGradient><linearGradient x1="0.1" y1="0" x2="0" y2="1" id="SvgjsLinearGradient2801"><stop stop-color="#ffffff" offset="0"/><stop stop-color="#ffffff" offset="0.75"/></linearGradient><linearGradient x1="0.1" y1="0" x2="0" y2="1" id="SvgjsLinearGradient2802"><stop stop-color="#ffffff" offset="0"/><stop stop-color="#ffffff" offset="0.875"/></linearGradient><clipPath id="SvgjsClipPath2803"><rect width="1920" height="1080"/></clipPath></defs></svg>