<svg xmlns="http://www.w3.org/2000/svg" version="1.1" xmlns:xlink="http://www.w3.org/1999/xlink" xmlns:svgjs="http://svgjs.dev/svgjs" viewBox="0 0 1920 1080" style="overflow: hidden; height: 85vh;" class="overflow-hidden rounded-md drop-shadow-lg transition duration-300"><rect width="1920" height="1080" fill="#5d55fa"/><g clip-path="url(&quot;#SvgjsClipPath10689&quot;)"><g transform="matrix(-0.7392057511395204,-0.8809511095868245,0.8809511095868245,-0.7392057511395204,1089.8969879345057,1732.1919330781045)"><path d="M0,-1080C-19.937613747229108,-944.8106790638242,-119.48663653949036,-550.0106514510363,-119.62568248337465,-268.8640743829448C-119.76472842725893,12.28250268514671,-18.189626109375943,355.6062684033261,-0.8342756633056752,606.8794624085491C16.521074782764593,858.1526564137721,-15.632625750837315,979.9216667164849,-15.493579806953036,1238.7750896483933C-15.354533863068758,1497.6285125803017,-2.5822633011588394,2006.462514941399,0,2160L 1920 2160 L 1920 -1080 Z" fill="url(&quot;#SvgjsLinearGradient10680&quot;)"/><path d="M213.33333333333331,-1080C208.2224741571263,-966.4071405670918,172.4445676784172,-607.9305264996487,182.66817827609117,-398.44284340255064C192.89178887376514,-188.95516030545258,266.6005679091638,-15.330706488371618,274.67499691937707,176.9260985825884C282.74942592959036,369.1829036535484,234.00659356935964,527.0054327179314,231.11475233737096,755.0979870232094C228.22291110538228,983.1905413284874,260.2875193614512,1311.3310889181246,257.32394952744494,1545.4814244142563C254.36037969343866,1779.631759910388,220.66510269901858,2057.580237402376,213.33333333333331,2160L 1920 2160 L 1920 -1080 Z" fill="url(&quot;#SvgjsLinearGradient10681&quot;)"/><path d="M426.66666666666663,-1080C408.41808318513836,-985.180781084812,314.23271597793075,-654.2061072128051,317.1751657774969,-511.084686508872C320.117615577063,-367.9632658049388,436.7391906647381,-375.73710197183004,444.3213654640633,-221.27147577640085C451.90354026338855,-66.80584958097168,374.9465290940645,234.30934278304053,362.66821457344844,415.70907066370296C350.3899000528324,597.1087985443654,367.7830895349002,742.7607173585372,370.65147834036713,867.1268915075735C373.51986714583404,991.4930656566098,387.5299298598686,1039.7163023822534,379.8785474062498,1161.9061155579209C372.22716495263103,1284.0959287335884,316.9451637419181,1433.9167898212318,324.74318361865426,1600.2657705615784C332.5412034953904,1766.614751301925,409.6794194919979,2066.710961760263,426.66666666666663,2160L 1920 2160 L 1920 -1080 Z" fill="url(&quot;#SvgjsLinearGradient10682&quot;)"/><path d="M640,-1080C655.6262041715911,-1009.774439633136,745.7499025483996,-825.2483090211587,733.7572250295468,-658.6466377988161C721.764547510694,-492.0449665764735,583.3109647773413,-245.26803690166136,568.0439348868829,-80.38997266594424C552.7769049964245,84.48809156977288,620.0132523170337,189.52541561262396,642.1550456867965,330.6217476154867C664.2968390565593,471.7180796183494,687.6533049196805,625.0787604555801,700.89469510546,766.1880193512322C714.1360852912394,907.2972782468844,724.0146539027523,1033.4803995385107,721.6033868014731,1177.2773009894C719.1921197001939,1321.0742024402891,700.0276569646965,1465.1823115548004,686.4270924977843,1628.969428056567C672.8265280308722,1792.7565445583336,647.7378487496308,2071.4949046760944,640,2160L 1920 2160 L 1920 -1080 Z" fill="url(&quot;#SvgjsLinearGradient10683&quot;)"/><path d="M853.3333333333333,-1080C840.5376166004224,-994.0752374247198,757.8310612087317,-717.3518634580171,776.5590329358686,-564.4514245483191C795.2870046630054,-411.5509856386211,950.8117014371221,-328.2224156243533,965.701163696154,-162.597366541812C980.5906259551859,3.02768254072933,868.2868014043819,272.4801791846809,865.8958064900598,429.2988699469289C863.5048115757378,586.1175607091769,968.1056544298143,628.9937195908587,951.3551942102215,778.314778031676C934.6047339906287,927.6358364724933,771.3236234015567,1186.613369799361,765.3930451725031,1325.2252205918323C759.4624669434495,1463.8370713843037,901.115010142428,1470.856752885143,915.7717248358997,1609.9858827865041C930.4284395293714,1749.1150126878654,863.7397319170943,2068.3309804644173,853.3333333333333,2160L 1920 2160 L 1920 -1080 Z" fill="url(&quot;#SvgjsLinearGradient10684&quot;)"/><path d="M1066.6666666666667,-1080C1052.1697677111563,-989.9033957936082,978.9303271913151,-732.7191990282959,979.6852729336039,-539.4203747616493C980.4402186758927,-346.1215504950028,1056.543012686572,-96.11773743921819,1071.1963411203994,79.79294559987923C1085.849669554227,255.70362863897665,1069.5214825642404,348.0173623773477,1067.6052435365689,516.0437234729352C1065.6890045088974,684.0700845685227,1042.4038957831133,922.7335704765288,1059.6989069543702,1087.9511121734045C1076.993918125627,1253.16865387028,1170.2140172787279,1328.674159016423,1171.3753105641106,1507.3489736541887C1172.5366038494933,1686.0237882919546,1084.1181073162406,2051.2248289423646,1066.6666666666667,2160L 1920 2160 L 1920 -1080 Z" fill="url(&quot;#SvgjsLinearGradient10685&quot;)"/><path d="M1280,-1080C1299.2075000135849,-995.7850949370327,1375.2073529470051,-735.4882165133033,1395.2450000815097,-574.7105696221963C1415.2826472160143,-413.93292273108926,1420.2257815150183,-281.31071318657695,1400.2258828070273,-115.33411865335765C1380.2259840990364,50.64247587986165,1275.2896903728367,291.41681043691733,1275.2456078335633,421.14899757711953C1275.20152529429,550.8811847173217,1387.0308287084345,526.6747208276983,1399.9613875713871,663.0590041878553C1412.8919464343398,799.4432875480123,1389.3123602847013,1066.9797106733308,1352.828961011279,1239.4546977380617C1316.3455617378568,1411.9296848027925,1193.1991520994006,1544.484709532584,1181.060991930854,1697.9089265762404C1168.9228317623074,1851.3331436198969,1263.510165321809,2082.98482109604,1280,2160L 1920 2160 L 1920 -1080 Z" fill="url(&quot;#SvgjsLinearGradient10686&quot;)"/><path d="M1493.3333333333333,-1080C1485.9467880201494,-948.4991101947259,1444.9501394794595,-565.0745024007038,1449.0140614542297,-290.99466116835526C1453.077983429,-16.914819936006836,1517.0667325994625,298.28574727706973,1517.7168651819547,564.4790473940907C1518.366997764447,830.6723475111116,1456.9787789239533,1040.2449807661187,1452.914856949183,1306.1651395337703C1448.850934974413,1572.085298301422,1486.5969206026416,2017.694189922295,1493.3333333333333,2160L 1920 2160 L 1920 -1080 Z" fill="url(&quot;#SvgjsLinearGradient10687&quot;)"/><path d="M1706.6666666666665,-1080C1721.9490292112503,-935.3755973339328,1806.0971674564814,-502.1716948913894,1798.3608419341692,-212.2535840035967C1790.624516411857,77.664526884196,1669.907930090067,394.57953734842766,1660.2487135327938,659.5086653267563C1650.5894969755204,924.4377933050848,1732.6692170682177,1127.2392947541675,1740.4055425905299,1377.321183866375C1748.141868112842,1627.4030729785823,1712.2898126539772,2029.5535306443958,1706.6666666666665,2160L 1920 2160 L 1920 -1080 Z" fill="url(&quot;#SvgjsLinearGradient10688&quot;)"/></g></g><defs><linearGradient x1="0.1" y1="0" x2="0" y2="1" id="SvgjsLinearGradient10680"><stop stop-color="#5d55fa" offset="0"/><stop stop-color="#5568fa" offset="0"/></linearGradient><linearGradient x1="0.1" y1="0" x2="0" y2="1" id="SvgjsLinearGradient10681"><stop stop-color="#7c75fb" offset="0"/><stop stop-color="#7584fb" offset="0.1111111111111111"/></linearGradient><linearGradient x1="0.1" y1="0" x2="0" y2="1" id="SvgjsLinearGradient10682"><stop stop-color="#9a95fc" offset="0"/><stop stop-color="#95a1fc" offset="0.2222222222222222"/></linearGradient><linearGradient x1="0.1" y1="0" x2="0" y2="1" id="SvgjsLinearGradient10683"><stop stop-color="#b9b5fd" offset="0"/><stop stop-color="#b5bdfd" offset="0.3333333333333333"/></linearGradient><linearGradient x1="0.1" y1="0" x2="0" y2="1" id="SvgjsLinearGradient10684"><stop stop-color="#d7d5fe" offset="0"/><stop stop-color="#d5dafe" offset="0.4444444444444444"/></linearGradient><linearGradient x1="0.1" y1="0" x2="0" y2="1" id="SvgjsLinearGradient10685"><stop stop-color="#f6f6ff" offset="0"/><stop stop-color="#f6f7ff" offset="0.5555555555555556"/></linearGradient><linearGradient x1="0.1" y1="0" x2="0" y2="1" id="SvgjsLinearGradient10686"><stop stop-color="#ffffff" offset="0"/><stop stop-color="#ffffff" offset="0.6666666666666666"/></linearGradient><linearGradient x1="0.1" y1="0" x2="0" y2="1" id="SvgjsLinearGradient10687"><stop stop-color="#ffffff" offset="0"/><stop stop-color="#ffffff" offset="0.7777777777777778"/></linearGradient><linearGradient x1="0.1" y1="0" x2="0" y2="1" id="SvgjsLinearGradient10688"><stop stop-color="#ffffff" offset="0"/><stop stop-color="#ffffff" offset="0.8888888888888888"/></linearGradient><clipPath id="SvgjsClipPath10689"><rect width="1920" height="1080"/></clipPath></defs></svg>