<svg width="79.96" height="35.28" viewBox="0 0 79.96 35.28" xmlns="http://www.w3.org/2000/svg"><g id="svgGroup" stroke-linecap="round" fill-rule="evenodd" font-size="9pt" stroke="#000" stroke-width="0.25mm" fill="black" style="stroke:#000;stroke-width:0.25mm;fill:black"><path d="M 36.909 32.215 A 10.464 10.464 0 0 0 38.12 32.28 A 14.694 14.694 0 0 0 38.505 32.275 Q 39.351 32.253 40.297 32.134 A 25.867 25.867 0 0 0 42.2 31.82 Q 44.48 31.36 46.8 30.42 Q 49.12 29.48 51.08 28.08 A 13.581 13.581 0 0 0 51.565 27.717 A 11.696 11.696 0 0 0 54.24 24.8 Q 55.44 22.92 55.44 20.6 A 6.104 6.104 0 0 0 55.387 19.807 A 7.351 7.351 0 0 0 55.12 18.6 A 4.242 4.242 0 0 0 54.564 17.462 A 5.834 5.834 0 0 0 53.86 16.62 Q 53.243 16.003 52.247 15.498 A 11.235 11.235 0 0 0 51.1 15 A 10.506 10.506 0 0 0 49.872 14.631 Q 49.116 14.45 48.22 14.331 A 24.814 24.814 0 0 0 46.32 14.16 Q 47.88 13.92 49.48 13.4 Q 51.08 12.88 52.44 11.98 Q 53.8 11.08 54.64 9.7 A 5.569 5.569 0 0 0 55.322 7.951 A 7.623 7.623 0 0 0 55.48 6.36 A 8.756 8.756 0 0 0 55.466 5.866 Q 55.368 4.127 54.56 3.02 Q 53.64 1.76 52.2 1.1 Q 50.76 0.44 49.16 0.22 Q 47.56 0 46.24 0 A 26.4 26.4 0 0 0 45.158 0.022 Q 44 0.069 42.987 0.221 A 13.716 13.716 0 0 0 40.94 0.68 Q 38.76 1.36 36.76 2.2 Q 36.76 2.347 36.889 2.526 A 1.454 1.454 0 0 0 37 2.66 Q 37.24 2.92 37.54 3.1 Q 37.739 3.22 37.894 3.26 A 0.584 0.584 0 0 0 38.04 3.28 A 0.443 0.443 0 0 0 38.092 3.277 Q 38.308 3.251 38.697 3.024 A 6.016 6.016 0 0 0 38.96 2.86 A 6.406 6.406 0 0 1 39.019 2.821 Q 39.652 2.416 40.74 1.92 Q 41.88 1.4 43.56 1.12 Q 43.024 2.172 42.472 3.383 A 80.245 80.245 0 0 0 41.42 5.8 Q 40.32 8.44 39.28 11.2 Q 38.24 13.96 37.38 16.48 Q 36.843 18.055 36.407 19.38 A 177.227 177.227 0 0 0 35.92 20.88 Q 35.32 22.76 35.08 23.56 Q 34.92 24.08 34.72 24.72 A 5.694 5.694 0 0 0 34.647 24.975 Q 34.52 25.458 34.52 25.84 A 1.621 1.621 0 0 0 34.774 26.728 A 2.018 2.018 0 0 0 35.2 27.2 Q 35.88 27.76 36.88 27.76 A 214.532 214.532 0 0 0 36.909 27.664 A 235.281 235.281 0 0 0 38.68 21.4 Q 39.56 18.12 40.48 14.88 Q 41.16 14.88 41.94 14.86 Q 42.72 14.84 43.48 14.84 Q 45.2 14.84 46.96 15.02 A 16.288 16.288 0 0 1 47.929 15.148 A 13.752 13.752 0 0 1 50.22 15.72 A 6.943 6.943 0 0 1 51.183 16.134 A 5.338 5.338 0 0 1 52.64 17.24 Q 53.56 18.24 53.56 19.88 A 5.544 5.544 0 0 1 53.222 21.778 A 6.972 6.972 0 0 1 52.38 23.38 A 9.914 9.914 0 0 1 50.829 25.114 A 13.577 13.577 0 0 1 49.06 26.44 Q 46.92 27.8 44 28.58 A 21.981 21.981 0 0 1 41.542 29.085 A 26.66 26.66 0 0 1 37.64 29.36 Q 36.094 29.36 35.306 29.245 A 3.519 3.519 0 0 1 34.88 29.16 A 13.879 13.879 0 0 0 34.777 29.132 Q 34.139 28.96 33.88 28.96 Q 33.789 28.96 33.739 28.985 A 0.099 0.099 0 0 0 33.68 29.08 A 5.147 5.147 0 0 0 33.681 29.185 Q 33.691 29.687 33.801 30.103 A 2.376 2.376 0 0 0 34.8 31.54 Q 35.588 32.06 36.909 32.215 Z M 32.16 22.32 L 32.72 22.72 Q 31.4 25.32 29.52 27.5 A 16.125 16.125 0 0 1 26.487 30.251 A 14.547 14.547 0 0 1 25.32 30.98 Q 23 32.28 20.32 32.28 A 9.254 9.254 0 0 1 18.383 32.089 Q 16.841 31.759 15.74 30.86 A 7.988 7.988 0 0 1 13.27 27.339 A 9.48 9.48 0 0 1 13.22 27.2 Q 12.44 24.96 12.44 22.52 A 21.979 21.979 0 0 1 13.341 16.36 A 24.472 24.472 0 0 1 13.4 16.16 Q 14.36 12.96 16.02 10.06 Q 17.68 7.16 19.8 4.9 A 20.367 20.367 0 0 1 22.25 2.665 A 16.35 16.35 0 0 1 24.26 1.34 A 10.951 10.951 0 0 1 26.441 0.407 A 8.488 8.488 0 0 1 28.88 0.04 Q 30.31 0.04 31.269 0.633 A 3.334 3.334 0 0 1 31.54 0.82 A 2.36 2.36 0 0 1 32.313 1.896 Q 32.56 2.555 32.56 3.48 A 7.999 7.999 0 0 1 32.483 4.552 Q 32.385 5.279 32.16 6.1 Q 31.76 7.56 31.08 8.9 Q 30.4 10.24 29.58 11.12 A 3.732 3.732 0 0 1 29.091 11.565 Q 28.801 11.782 28.508 11.891 A 1.679 1.679 0 0 1 27.92 12 A 1.139 1.139 0 0 1 27.543 11.933 A 1.598 1.598 0 0 1 27.26 11.8 A 1.134 1.134 0 0 1 26.982 11.564 Q 26.878 11.445 26.787 11.287 A 2.538 2.538 0 0 1 26.68 11.08 A 16.879 16.879 0 0 0 27.15 10.522 Q 27.405 10.207 27.681 9.839 A 33.232 33.232 0 0 0 28.02 9.38 Q 28.76 8.36 29.44 7.22 A 15.462 15.462 0 0 0 30.188 5.811 A 12.925 12.925 0 0 0 30.54 4.98 Q 30.862 4.138 30.937 3.448 A 3.758 3.758 0 0 0 30.96 3.04 A 2.271 2.271 0 0 0 30.89 2.461 A 1.677 1.677 0 0 0 30.5 1.74 A 1.374 1.374 0 0 0 29.965 1.39 Q 29.742 1.306 29.465 1.269 A 3.536 3.536 0 0 0 29 1.24 Q 27.522 1.24 25.94 2.274 A 9.615 9.615 0 0 0 25.42 2.64 Q 23.676 3.953 22.038 6.091 A 25.314 25.314 0 0 0 21.82 6.38 A 31.487 31.487 0 0 0 19.401 10.194 A 36.402 36.402 0 0 0 18.68 11.6 Q 17.28 14.48 16.46 17.48 A 23.593 23.593 0 0 0 15.775 20.944 A 19.318 19.318 0 0 0 15.64 23.2 Q 15.64 25.16 16.2 26.94 A 6.786 6.786 0 0 0 16.993 28.639 A 5.747 5.747 0 0 0 18.02 29.82 A 4.368 4.368 0 0 0 20.102 30.813 A 6.169 6.169 0 0 0 21.28 30.92 A 7.956 7.956 0 0 0 24.317 30.3 A 10.108 10.108 0 0 0 25.5 29.72 A 15.192 15.192 0 0 0 28.688 27.268 A 17.615 17.615 0 0 0 29.36 26.56 Q 31.12 24.6 32.16 22.32 Z M 55.388 33.118 A 27.929 27.929 0 0 0 55.66 32.66 A 49.497 49.497 0 0 0 56.477 31.197 Q 56.959 30.302 57.47 29.278 A 90.405 90.405 0 0 0 57.94 28.32 A 138.703 138.703 0 0 0 59.488 25.006 A 169.758 169.758 0 0 0 60.44 22.86 Q 61.72 19.92 62.98 16.88 Q 64.24 13.84 65.38 10.98 Q 66.52 8.12 67.46 5.74 A 763.499 763.499 0 0 0 67.909 4.601 Q 68.55 2.97 69 1.8 Q 69.112 1.521 69.418 1.242 A 3.273 3.273 0 0 1 69.72 1 Q 70.28 0.6 71 0.3 A 4.19 4.19 0 0 1 71.657 0.085 A 3.086 3.086 0 0 1 72.36 0 A 64.282 64.282 0 0 0 72.253 0.258 Q 72.081 0.676 71.766 1.452 A 840.807 840.807 0 0 0 71.56 1.96 Q 70.96 3.44 70.08 5.56 Q 69.2 7.68 68.16 10.2 Q 67.12 12.72 66.04 15.34 A 711.826 711.826 0 0 1 64.454 19.158 A 634.491 634.491 0 0 1 63.94 20.38 Q 62.92 22.8 62.1 24.76 Q 61.366 26.513 60.905 27.658 A 110.463 110.463 0 0 0 60.8 27.92 A 23.873 23.873 0 0 1 59.682 30.264 Q 59.062 31.392 58.381 32.279 A 11.207 11.207 0 0 1 57.42 33.38 A 9.402 9.402 0 0 1 56.365 34.298 Q 55.036 35.28 53.8 35.28 Q 54.496 34.584 55.388 33.118 Z M 40.72 13.96 Q 42.92 13.88 45.1 13.46 Q 47.28 13.04 49.08 12.12 A 8.652 8.652 0 0 0 51.057 10.751 A 7.628 7.628 0 0 0 51.98 9.72 A 5.474 5.474 0 0 0 52.959 7.422 A 7.54 7.54 0 0 0 53.08 6.04 A 7.087 7.087 0 0 0 52.979 4.806 Q 52.859 4.128 52.596 3.591 A 3.416 3.416 0 0 0 52.1 2.84 A 5.07 5.07 0 0 0 49.864 1.368 A 6.164 6.164 0 0 0 49.58 1.28 Q 48.04 0.84 46.32 0.84 L 45.94 0.84 A 1.818 1.818 0 0 0 45.695 0.857 A 2.2 2.2 0 0 0 45.56 0.88 A 45.607 45.607 0 0 0 43.862 4.599 A 54.895 54.895 0 0 0 42.94 7.04 Q 41.76 10.4 40.72 13.96 Z M 4.62 26.56 A 6.844 6.844 0 0 0 5.199 26.803 Q 5.854 27.04 6.36 27.04 A 1.413 1.413 0 0 0 6.422 27.039 A 1.138 1.138 0 0 0 7.06 26.82 A 3.646 3.646 0 0 0 7.203 26.71 Q 7.301 26.63 7.38 26.553 A 1.696 1.696 0 0 0 7.52 26.4 A 95.322 95.322 0 0 1 7.148 26.25 Q 5.604 25.625 4.62 25.16 A 18.632 18.632 0 0 1 4.457 25.082 Q 3.462 24.6 2.74 24.1 Q 1.96 23.56 1.04 22.92 Q 2.04 22.4 3.22 21.72 Q 4.4 21.04 5.44 20.26 Q 6.48 19.48 7.14 18.66 Q 7.444 18.282 7.608 17.908 A 2.147 2.147 0 0 0 7.8 17.04 A 1.668 1.668 0 0 0 7.794 16.907 Q 7.788 16.827 7.774 16.734 A 3.942 3.942 0 0 0 7.74 16.54 A 2.763 2.763 0 0 0 7.731 16.498 Q 7.69 16.305 7.639 16.214 A 0.242 0.242 0 0 0 7.6 16.16 Q 7.167 16.758 6.617 17.378 A 21.898 21.898 0 0 1 5.48 18.56 Q 4.2 19.8 2.76 20.84 Q 1.32 21.88 0 22.48 Q 0.16 23.08 0.88 23.86 A 10.034 10.034 0 0 0 1.564 24.531 A 12.555 12.555 0 0 0 2.6 25.36 A 14.237 14.237 0 0 0 3.038 25.664 A 12.395 12.395 0 0 0 4.62 26.56 Z M 73.252 26.992 A 1.209 1.209 0 0 0 73.6 27.04 A 2.716 2.716 0 0 0 74.139 26.981 Q 74.418 26.925 74.732 26.813 A 6.773 6.773 0 0 0 75.34 26.56 Q 76.36 26.08 77.36 25.36 A 13.062 13.062 0 0 0 78.099 24.788 A 10.419 10.419 0 0 0 79.08 23.86 Q 79.555 23.345 79.787 22.909 A 2.051 2.051 0 0 0 79.96 22.48 Q 78.64 21.88 77.2 20.84 Q 75.76 19.8 74.48 18.56 Q 73.2 17.32 72.36 16.16 A 0.485 0.485 0 0 0 72.342 16.201 Q 72.313 16.277 72.269 16.435 A 8.659 8.659 0 0 0 72.24 16.54 A 3.09 3.09 0 0 0 72.196 16.726 Q 72.178 16.814 72.169 16.891 A 1.287 1.287 0 0 0 72.16 17.04 A 1.978 1.978 0 0 0 72.187 17.365 Q 72.294 18.006 72.82 18.66 Q 73.171 19.096 73.628 19.52 A 11.17 11.17 0 0 0 74.52 20.26 Q 75.56 21.04 76.74 21.72 Q 77.92 22.4 78.92 22.92 Q 78.04 23.56 77.24 24.1 A 10.8 10.8 0 0 1 77.214 24.117 Q 76.812 24.387 76.341 24.652 A 17.723 17.723 0 0 1 75.36 25.16 A 21.238 21.238 0 0 1 75.124 25.272 Q 74.086 25.756 72.44 26.4 Q 72.546 26.506 72.675 26.618 A 6.463 6.463 0 0 0 72.92 26.82 A 0.994 0.994 0 0 0 73.252 26.992 Z" vector-effect="non-scaling-stroke"/></g></svg>