<svg xmlns="http://www.w3.org/2000/svg" width="256" height="256" viewBox="0 0 100 100"><rect width="100" height="100" rx="20" fill="#ffffff"></rect><path d="M44.55 90.30L44.55 90.30Q36.95 90.30 32.10 86.70Q27.25 83.10 25 77.40Q22.75 71.70 22.75 65.60L22.75 65.60Q22.75 57.70 25.15 49.75Q27.55 41.80 31.80 34.60Q36.05 27.40 41.45 21.80Q46.85 16.20 53 12.95Q59.15 9.70 65.25 9.70L65.25 9.70Q69.65 9.70 72.65 11.75Q75.65 13.80 75.65 18.80L75.65 18.80Q75.65 21.80 74.60 25.50Q73.55 29.20 71.80 32.65Q70.05 36.10 67.85 38.30Q65.65 40.50 63.35 40.50L63.35 40.50Q62.35 40.50 61.25 39.80Q60.15 39.10 59.25 37.40L59.25 37.40Q60.75 35.70 62.65 33.25Q64.55 30.80 66.25 28.05Q67.95 25.30 69.05 22.65Q70.15 20.00 70.15 18.00L70.15 18.00Q70.15 16.20 69.15 15.15Q68.15 14.10 65.65 14.10L65.65 14.10Q61.25 14.10 56.60 17.40Q51.95 20.70 47.65 26.25Q43.35 31.80 39.90 38.65Q36.45 45.50 34.45 52.75Q32.45 60.00 32.45 66.50L32.45 66.50Q32.45 71.30 33.90 75.65Q35.35 80.00 38.55 82.75Q41.75 85.50 46.95 85.50L46.95 85.50Q52.35 85.50 57.70 82.50Q63.05 79.50 67.50 74.60Q71.95 69.70 74.65 64.10L74.65 64.10L77.25 65.80Q73.75 72.50 68.85 78.05Q63.95 83.60 57.80 86.95Q51.65 90.30 44.55 90.30Z" fill="#4a4a4a"></path></svg>