<svg xmlns="http://www.w3.org/2000/svg" width="256" height="256" viewBox="0 0 100 100"><rect width="100" height="100" rx="20" fill="#ffffff"></rect><path d="M74.62 18.15L74.62 18.15Q77.22 19.45 77.67 22.25Q78.12 25.05 76.22 27.35L76.22 27.35Q74.92 29.15 72.87 29.35Q70.82 29.55 68.72 28.55L68.72 28.55Q66.32 27.45 63.67 26.85Q61.02 26.25 58.12 26.25L58.12 26.25Q52.72 26.25 48.47 27.95Q44.22 29.65 41.22 32.80Q38.22 35.95 36.67 40.25Q35.12 44.55 35.12 49.75L35.12 49.75Q35.12 55.85 36.87 60.35Q38.62 64.85 41.72 67.85Q44.82 70.85 49.02 72.30Q53.22 73.75 58.12 73.75L58.12 73.75Q60.82 73.75 63.52 73.25Q66.22 72.75 68.72 71.45L68.72 71.45Q70.82 70.45 72.87 70.75Q74.92 71.05 76.32 72.85L76.32 72.85Q78.32 75.35 77.77 78Q77.22 80.65 74.72 81.85L74.72 81.85Q72.12 83.15 69.37 84Q66.62 84.85 63.82 85.30Q61.02 85.75 58.12 85.75L58.12 85.75Q50.92 85.75 44.47 83.45Q38.02 81.15 32.97 76.65Q27.92 72.15 25.02 65.40Q22.12 58.65 22.12 49.75L22.12 49.75Q22.12 42.05 24.77 35.55Q27.42 29.05 32.27 24.30Q37.12 19.55 43.72 16.90Q50.32 14.25 58.12 14.25L58.12 14.25Q62.52 14.25 66.72 15.25Q70.92 16.25 74.62 18.15Z" fill="#4a4a4a"></path></svg>