<svg xmlns="http://www.w3.org/2000/svg" width="256" height="256" viewBox="0 0 100 100"><rect width="100" height="100" rx="20" fill="#ffffff"></rect><path d="M14.39 68.42L14.39 68.42Q9.83 68.42 6.92 66.26Q4.01 64.10 2.66 60.68Q1.31 57.26 1.31 53.60L1.31 53.60Q1.31 48.86 2.75 44.09Q4.19 39.32 6.74 35Q9.29 30.68 12.53 27.32Q15.77 23.96 19.46 22.01Q23.15 20.06 26.81 20.06L26.81 20.06Q29.45 20.06 31.25 21.29Q33.05 22.52 33.05 25.52L33.05 25.52Q33.05 27.32 32.42 29.54Q31.79 31.76 30.74 33.83Q29.69 35.90 28.37 37.22Q27.05 38.54 25.67 38.54L25.67 38.54Q25.07 38.54 24.41 38.12Q23.75 37.70 23.21 36.68L23.21 36.68Q24.11 35.66 25.25 34.19Q26.39 32.72 27.41 31.07Q28.43 29.42 29.09 27.83Q29.75 26.24 29.75 25.04L29.75 25.04Q29.75 23.96 29.15 23.33Q28.55 22.70 27.05 22.70L27.05 22.70Q24.41 22.70 21.62 24.68Q18.83 26.66 16.25 29.99Q13.67 33.32 11.60 37.43Q9.53 41.54 8.33 45.89Q7.13 50.24 7.13 54.14L7.13 54.14Q7.13 57.02 8.00 59.63Q8.87 62.24 10.79 63.89Q12.71 65.54 15.83 65.54L15.83 65.54Q19.07 65.54 22.28 63.74Q25.49 61.94 28.16 59Q30.83 56.06 32.45 52.70L32.45 52.70L34.01 53.72Q31.91 57.74 28.97 61.07Q26.03 64.40 22.34 66.41Q18.65 68.42 14.39 68.42ZM36.17 65L36.17 65Q33.35 65 32.24 63.11Q31.13 61.22 31.13 58.64L31.13 58.64Q31.13 55.70 32.21 51.74Q33.29 47.78 35.06 43.43Q36.83 39.08 38.96 34.91Q41.09 30.74 43.25 27.38Q45.41 24.02 47.24 22.01Q49.07 20.00 50.21 20.00L50.21 20.00Q50.99 20.00 51.53 20.81Q52.07 21.62 52.40 22.73Q52.73 23.84 52.73 24.80L52.73 24.80Q52.73 26.42 51.92 29.03Q51.11 31.64 49.64 34.76Q48.17 37.88 46.16 41.15Q44.15 44.42 41.72 47.36Q39.29 50.30 36.53 52.46L36.53 52.46Q36.29 53.96 36.08 55.43Q35.87 56.90 35.87 58.10L35.87 58.10Q35.87 60.26 36.59 61.25Q37.31 62.24 38.45 62.24L38.45 62.24Q39.95 62.24 41.54 60.83Q43.13 59.42 44.60 57.23Q46.07 55.04 47.15 52.70L47.15 52.70L48.59 53.48Q46.01 58.82 42.83 61.91Q39.65 65 36.17 65ZM37.61 48.74L37.61 48.74Q39.65 46.52 41.48 43.91Q43.31 41.30 44.84 38.60Q46.37 35.90 47.51 33.38Q48.65 30.86 49.28 28.85Q49.91 26.84 49.97 25.64L49.97 25.64Q49.97 25.58 49.97 25.55Q49.97 25.52 49.97 25.46L49.97 25.46Q49.49 25.46 48.44 26.81Q47.39 28.16 45.95 30.50Q44.51 32.84 42.98 35.84Q41.45 38.84 40.04 42.17Q38.63 45.50 37.61 48.74ZM49.07 66.02L49.07 66.02Q47.09 66.02 45.62 64.70Q44.15 63.38 44.15 60.74L44.15 60.74Q44.15 58.64 45.11 56.18Q46.07 53.72 47.75 51.32Q49.43 48.92 51.59 46.97Q53.75 45.02 56.21 43.82Q58.67 42.62 61.13 42.62L61.13 42.62Q63.71 42.62 65.51 43.94Q67.31 45.26 67.31 47.42L67.31 47.42Q67.31 49.04 66.17 49.76Q65.03 50.48 63.47 50.18L63.47 50.18Q63.59 49.64 63.68 49.10Q63.77 48.56 63.77 47.96L63.77 47.96Q63.77 46.76 63.29 45.80Q62.81 44.84 61.25 44.84L61.25 44.84Q59.57 44.84 57.83 45.98Q56.09 47.12 54.50 48.95Q52.91 50.78 51.65 52.97Q50.39 55.16 49.67 57.26Q48.95 59.36 48.95 61.04L48.95 61.04Q48.95 62.96 50.33 62.96L50.33 62.96Q51.71 62.96 53.39 61.61Q55.07 60.26 56.78 58.22Q58.49 56.18 60.05 54.05Q61.61 51.92 62.75 50.42L62.75 50.42Q62.93 50.12 63.23 50.12L63.23 50.12Q63.47 50.18 64.16 50.39Q64.85 50.60 65.45 51.02Q66.05 51.44 66.05 52.10L66.05 52.10Q66.05 52.70 65.54 53.63Q65.03 54.56 64.34 55.67Q63.65 56.78 63.14 57.89Q62.63 59 62.63 60.02L62.63 60.02Q62.63 60.80 63.05 61.49Q63.47 62.18 64.43 62.18L64.43 62.18Q65.87 62.18 68.48 60.05Q71.09 57.92 73.79 52.82L73.79 52.82L74.93 53.96Q73.49 57.20 71.48 59.69Q69.47 62.18 67.25 63.59Q65.03 65 62.75 65L62.75 65Q60.29 65 59.09 63.44Q57.89 61.88 57.77 60.08L57.77 60.08Q57.77 59.96 57.77 59.90Q57.77 59.84 57.77 59.78L57.77 59.78Q55.37 62.66 53.36 64.34Q51.35 66.02 49.07 66.02ZM75.23 80L75.23 80Q73.73 80 72.44 79.07Q71.15 78.14 71.15 76.10L71.15 76.10Q71.15 74.18 72.29 72.65Q73.43 71.12 75.23 69.83Q77.03 68.54 79.10 67.49Q81.17 66.44 83.09 65.54L83.09 65.54Q83.75 63.80 84.56 61.13Q85.37 58.46 85.97 56.18L85.97 56.18Q84.11 58.76 82.01 60.74Q79.91 62.72 77.33 62.72L77.33 62.72Q76.25 62.72 75.05 62.27Q73.85 61.82 73.04 60.71Q72.23 59.60 72.23 57.74L72.23 57.74Q72.23 56.18 72.80 53.96Q73.37 51.74 74.24 49.61Q75.11 47.48 76.07 46.07Q77.03 44.66 77.75 44.66L77.75 44.66Q78.11 44.66 78.80 44.93Q79.49 45.20 80.15 45.65Q80.81 46.10 80.99 46.64L80.99 46.64Q80.45 47.36 79.79 48.71Q79.13 50.06 78.53 51.71Q77.93 53.36 77.54 54.92Q77.15 56.48 77.15 57.62L77.15 57.62Q77.15 58.52 77.51 59.18Q77.87 59.84 78.89 59.84L78.89 59.84Q80.21 59.84 81.62 58.76Q83.03 57.68 84.38 56Q85.73 54.32 86.81 52.58L86.81 52.58Q86.93 52.16 87.05 51.26Q87.17 50.36 87.47 49.40L87.47 49.40Q87.77 48.38 88.52 47.54Q89.27 46.70 90.65 46.70L90.65 46.70Q91.13 46.70 91.55 46.76Q91.97 46.82 92.57 46.94L92.57 46.94Q92.57 47.84 91.94 50.45Q91.31 53.06 90.29 56.48Q89.27 59.90 88.01 63.32L88.01 63.32Q90.53 62.30 93.26 59.93Q95.99 57.56 97.67 53.18L97.67 53.18L98.69 54.02Q97.79 57.02 95.96 59.24Q94.13 61.46 91.85 63.02Q89.57 64.58 87.23 65.60L87.23 65.60Q85.61 69.50 83.72 72.80Q81.83 76.10 79.73 78.05Q77.63 80 75.23 80ZM74.63 77.78L74.63 77.78Q75.77 77.78 77.81 75.38Q79.85 72.98 81.95 68.18L81.95 68.18Q80.03 69.14 78.08 70.43Q76.13 71.72 74.81 73.16Q73.49 74.60 73.49 76.10L73.49 76.10Q73.49 76.70 73.76 77.24Q74.03 77.78 74.63 77.78Z" fill="#4a4a4a"></path></svg>