<svg id="visual" viewBox="0 0 900 600" width="900" height="600" xmlns="http://www.w3.org/2000/svg" xmlns:xlink="http://www.w3.org/1999/xlink" version="1.1"><path d="M0 593L21.5 586.2C43 579.3 86 565.7 128.8 565.2C171.7 564.7 214.3 577.3 257.2 582.2C300 587 343 584 385.8 581C428.7 578 471.3 575 514.2 577.8C557 580.7 600 589.3 642.8 592.5C685.7 595.7 728.3 593.3 771.2 593.2C814 593 857 595 878.5 596L900 597L900 601L878.5 601C857 601 814 601 771.2 601C728.3 601 685.7 601 642.8 601C600 601 557 601 514.2 601C471.3 601 428.7 601 385.8 601C343 601 300 601 257.2 601C214.3 601 171.7 601 128.8 601C86 601 43 601 21.5 601L0 601Z" fill="#292C2F" stroke-linecap="round" stroke-linejoin="miter"></path></svg>